<?xml version="1.0" encoding="UTF-8"?>
<svg version="1.1" xmlns="http://www.w3.org/2000/svg" width="512" height="512">
<path d="M0 0 C168.96 0 337.92 0 512 0 C512 168.96 512 337.92 512 512 C343.04 512 174.08 512 0 512 C0 343.04 0 174.08 0 0 Z " fill="#24059D" transform="translate(0,0)"/>
<path d="M0 0 C1.12257202 -0.00833862 1.12257202 -0.00833862 2.26782227 -0.0168457 C14.73508752 0.14410211 26.11434029 4.87342842 35.9375 12.375 C36.49397217 12.79845703 37.05044434 13.22191406 37.6237793 13.65820312 C40.47809249 15.93207574 42.52084325 17.86010881 43.8125 21.3125 C44.4725 21.3125 45.1325 21.3125 45.8125 21.3125 C45.8125 15.7025 45.8125 10.0925 45.8125 4.3125 C53.4025 4.3125 60.9925 4.3125 68.8125 4.3125 C68.8125 65.6925 68.8125 127.0725 68.8125 190.3125 C61.2225 190.3125 53.6325 190.3125 45.8125 190.3125 C45.4825 166.2225 45.1525 142.1325 44.8125 117.3125 C42.5025 119.6225 40.1925 121.9325 37.8125 124.3125 C22.55035442 134.82469211 6.82237831 138.28512439 -11.45703125 135.8828125 C-29.04633447 132.06826481 -44.12454378 121.09192755 -54.1875 106.3125 C-63.99700577 90.13219546 -68.42629526 71.30818055 -63.875 52.62890625 C-58.36383145 34.06002587 -48.3512787 18.1050007 -31.1875 8.3125 C-27.59607385 6.40684531 -23.9789589 4.77860238 -20.1875 3.3125 C-19.35992187 2.99152344 -18.53234375 2.67054688 -17.6796875 2.33984375 C-11.79353095 0.40479228 -6.14507682 0.03827731 0 0 Z " fill="#FCFCFD" transform="translate(366.1875,188.6875)"/>
<path d="M0 0 C1.62533855 1.13698567 3.23186474 2.30164531 4.8125 3.5 C5.51246094 4.00789062 6.21242188 4.51578125 6.93359375 5.0390625 C16.22492072 12.39243238 22.68904329 23.55262669 26.8125 34.5 C27.13089844 35.30050781 27.44929687 36.10101563 27.77734375 36.92578125 C31.996501 49.42770804 31.20545757 65.18560488 26.8125 77.5 C26.46058594 78.50289063 26.10867187 79.50578125 25.74609375 80.5390625 C23.02983938 87.62104585 19.48810228 93.54744752 14.8125 99.5 C14.24015625 100.26054687 13.6678125 101.02109375 13.078125 101.8046875 C4.22478556 112.73894005 -7.95493496 118.59745913 -21.1875 122.5 C-21.92871094 122.74492187 -22.66992188 122.98984375 -23.43359375 123.2421875 C-38.67172275 127.57896495 -55.16915285 124.27073245 -68.9375 117.25 C-83.8139462 108.69514292 -95.17247396 96.72162534 -101.1875 80.5 C-101.77144531 79.19095703 -101.77144531 79.19095703 -102.3671875 77.85546875 C-107.11898031 66.13984165 -106.92919769 50.55421927 -103.1875 38.5 C-102.919375 37.61441406 -102.65125 36.72882813 -102.375 35.81640625 C-98.61647415 24.52516818 -92.48683688 15.94193717 -84.1875 7.5 C-83.56101562 6.860625 -82.93453125 6.22125 -82.2890625 5.5625 C-74.18909582 -2.09316471 -63.9548464 -6.92218226 -53.1875 -9.5 C-52.58631348 -9.66838379 -51.98512695 -9.83676758 -51.36572266 -10.01025391 C-33.33061692 -14.06522164 -15.45100203 -9.33409849 0 0 Z " fill="#FBFBFD" transform="translate(168.1875,199.5)"/>
<path d="M0 0 C10.19567361 7.01414991 15.23714581 16.08643744 19.125 27.75 C20.15282106 40.97952535 18.94270611 52.62967381 10.8125 63.6875 C9.61640565 65.07096535 8.38744844 66.42680614 7.125 67.75 C6.52945313 68.38550781 5.93390625 69.02101563 5.3203125 69.67578125 C-3.73519221 78.44947564 -15.2334113 81.10424456 -27.40405273 81.13061523 C-38.77503507 80.91716127 -46.56460625 76.96825104 -54.69140625 69.0625 C-64.46414939 58.71283285 -68.65741948 48.37100815 -68.46435547 34.11865234 C-67.9459705 22.26312074 -63.1738196 13.16211406 -54.875 4.75 C-38.6184915 -9.70578756 -18.63985774 -11.12789322 0 0 Z " fill="#25079D" transform="translate(154.875,219.25)"/>
<path d="M0 0 C8.6834016 7.11606563 16.45827023 16.11986261 18.07958984 27.57958984 C19.20644583 40.75374832 17.38797542 52.23868388 9.4375 63.125 C3.45796219 70.16354882 -2.52959849 75.08328485 -11.25 78.25 C-12.343125 78.6625 -13.43625 79.075 -14.5625 79.5 C-26.35783469 81.89905112 -38.11862193 80.26593876 -48.5078125 74.203125 C-58.53161009 67.06366803 -65.41156511 56.66995429 -67.96484375 44.59765625 C-69.65159635 30.71083008 -67.62190121 19.83622136 -59.22265625 8.6015625 C-43.92820337 -9.63063677 -19.72608686 -13.65945666 0 0 Z " fill="#25079D" transform="translate(393.25,220.75)"/>
<path d="M0 0 C0.99 0.66 1.98 1.32 3 2 C3 2.66 3 3.32 3 4 C1.31933594 5.22094727 1.31933594 5.22094727 -1.015625 6.56640625 C-1.85480469 7.05173828 -2.69398438 7.53707031 -3.55859375 8.03710938 C-4.44675781 8.54048828 -5.33492188 9.04386719 -6.25 9.5625 C-7.12269531 10.06974609 -7.99539063 10.57699219 -8.89453125 11.09960938 C-16.48525482 15.45123793 -16.48525482 15.45123793 -20 16 C-21.67884121 15.36461475 -23.34486747 14.69480826 -25 14 C-32.57314073 12.88598778 -38.43440753 13.772365 -44.80078125 18.078125 C-49.17399886 21.8998356 -52.16911392 26.50734177 -54 32 C-54.12053451 34.93564137 -54.18542597 37.84927826 -54.20532227 40.78588867 C-54.22017166 42.13253853 -54.22017166 42.13253853 -54.23532104 43.50639343 C-54.26693456 46.47689162 -54.29169295 49.4474058 -54.31640625 52.41796875 C-54.3369759 54.47634804 -54.35797238 56.53472311 -54.37937927 58.59309387 C-54.43459878 64.01326072 -54.48400863 69.43346568 -54.53222656 74.85369873 C-54.58244243 80.38362016 -54.63812806 85.91348617 -54.69335938 91.44335938 C-54.80093951 102.29552736 -54.90187946 113.14774236 -55 124 C-62.59 124 -70.18 124 -78 124 C-78.11338731 111.85534643 -78.2049381 99.71104987 -78.25906086 87.56598473 C-78.28504945 81.92529865 -78.32024982 76.28499646 -78.37719727 70.64453125 C-78.4319018 65.19150698 -78.46150109 59.73884976 -78.47438622 54.28557205 C-78.48355751 52.21493383 -78.50146523 50.14431354 -78.52865028 48.07383347 C-78.74336448 31.02809216 -76.9425576 17.22648444 -65 4 C-45.97411842 -14.7624463 -21.38178909 -15.36461305 0 0 Z " fill="#FAF9FC" transform="translate(300,199)"/>
</svg>
